<?xml version="1.0" encoding="utf-8"?>
<!-- Generator: Adobe Illustrator 21.1.0, SVG Export Plug-In . SVG Version: 6.00 Build 0)  -->
<svg version="1.1" id="Layer_1" xmlns="http://www.w3.org/2000/svg" xmlns:xlink="http://www.w3.org/1999/xlink" x="0px" y="0px"
	 viewBox="0 0 120 36" style="enable-background:new 0 0 120 36;" xml:space="preserve">
<g>
	<g id="Shape_1_6_" style="enable-background:new    ;">
		<g id="Shape_1">
			<g>
				<path style="fill:#1E1E1E;" d="M50.5,9c-5,0-8.9,3.9-8.9,8.9s3.9,8.9,8.9,8.9s8.9-3.9,8.9-8.9C59.5,13,55.5,9,50.5,9z
					 M50.5,22.5c-2.6,0-4.5-1.9-4.5-4.6s1.9-4.6,4.5-4.6s4.5,1.9,4.5,4.6S53,22.5,50.5,22.5z M70.9,9c-2.2,0-4.5,0.8-5.5,2.2V9.5
					h-3.9v17h4.4v-11c0.1-0.4,1.3-2.3,3.6-2.3c2,0,3.3,1.3,3.3,3.4v9.8h4.4V16c0-2.1-0.6-3.9-1.9-5.2C74.3,9.7,72.6,9,70.9,9z
					 M104.6,4.4l-4.4,1.1v3.9h-2.8v4.2h2.8V21c0,1.9,0.5,3.3,1.4,4.2c1,1,2.4,1.4,4.4,1.4c0.9,0,2-0.1,3-0.3v-4c0,0-1.4,0.2-2.2,0.2
					c-1.8,0-2.2-0.8-2.2-1.5v-7.3h4.4V9.5h-4.4L104.6,4.4z M88.1,9c-5.1,0-8.9,3.8-8.9,9s3.8,8.9,9.3,8.9c3.1,0,5.6-1.2,7.2-3.4
					l-3.6-2c-0.4,0.4-1.5,1.4-3.5,1.4c-2.4,0-4.1-1.1-4.7-3h12.7l0,0c0.1-0.7,0.2-1.2,0.2-1.8C96.8,12.9,93.1,9,88.1,9z M83.9,16.3
					c0.5-2.1,2.1-3.3,4.3-3.3c2.1,0,3.6,1.2,4.1,3.3H83.9z"/>
			</g>
		</g>
	</g>
	<g id="Shape_2_7_" style="enable-background:new    ;">
		<g id="Shape_2">
			<g>
				<circle style="fill:#FFD200;" cx="17.9" cy="18" r="17"/>
			</g>
		</g>
	</g>
</g>
<rect x="109.1" y="23.9" style="fill:#FFFFFF;" width="10.9" height="9.2"/>
</svg>
