<?xml version="1.0" encoding="utf-8"?>
<!-- Generator: Adobe Illustrator 21.1.0, SVG Export Plug-In . SVG Version: 6.00 Build 0)  -->
<svg version="1.1" id="Layer_1" xmlns="http://www.w3.org/2000/svg" xmlns:xlink="http://www.w3.org/1999/xlink" x="0px" y="0px"
	 viewBox="0 0 128.1 36" style="enable-background:new 0 0 128.1 36;" xml:space="preserve">
<g id="Shape_1_1_">
	<g>
		<path style="fill:#1E1E1E;" d="M45.1,9.5h-4.2v17.2h4.2c2.5,0,3.9-1.4,3.9-4.2v-8.9C49.1,10.9,47.7,9.5,45.1,9.5z M46.7,22.7
			c0,1.3-0.5,1.9-1.6,1.9h-1.8V11.5h1.8c1.1,0,1.6,0.6,1.6,1.9V22.7z M58.6,9.3c-2.5,0-4,1.5-4,4.2v9.1c0,2.7,1.4,4.2,4,4.2
			s4-1.5,4-4.2v-9.1C62.6,10.8,61.2,9.3,58.6,9.3z M60.2,22.8c0,1.6-0.9,1.9-1.6,1.9c-0.7,0-1.6-0.3-1.6-1.9v-9.5
			c0-1.6,0.9-1.9,1.6-1.9c0.7,0,1.6,0.3,1.6,1.9V22.8z M89.2,9.3c-2.5,0-4,1.5-4,4.2v9.1c0,2.7,1.4,4.2,4,4.2c2.5,0,4-1.5,4-4.2
			v-9.1C93.2,10.8,91.7,9.3,89.2,9.3z M90.8,22.8c0,1.6-0.9,1.9-1.6,1.9c-0.7,0-1.6-0.3-1.6-1.9v-9.5c0-1.6,0.9-1.9,1.6-1.9
			c0.7,0,1.6,0.3,1.6,1.9V22.8z M103.4,17.3c-1.2-1.1-2.4-2.2-2.4-4c0-1.3,0.5-1.9,1.6-1.9c1.1,0,1.6,0.7,1.6,1.9v0.5h2.1v-0.3
			c0-2.7-1.3-4.2-3.9-4.2s-3.9,1.4-3.9,4.2c0,2.6,1.5,4,2.9,5.3c1.2,1.1,2.4,2.2,2.4,4c0,1.3-0.6,1.9-1.6,1.9
			c-1.1,0-1.6-0.6-1.6-1.9v-1h-2.1v0.8c0,2.7,1.3,4.2,3.9,4.2s3.9-1.4,3.9-4.2C106.4,20.1,104.9,18.7,103.4,17.3z M104.9,5.7h-2
			l-1.4,2.3h1.3L104.9,5.7z M115.8,9.3c-2.5,0-3.9,1.4-3.9,4.2v9.1c0,2.7,1.3,4.2,3.9,4.2s3.9-1.4,3.9-4.2v-2.1h-2.1v2.3
			c0,1.3-0.6,1.9-1.6,1.9c-1,0-1.6-0.6-1.6-1.9v-9.5c0-1.6,0.9-1.9,1.6-1.9c0.7,0,1.6,0.3,1.6,1.9v1.6h2.1v-1.5
			C119.7,10.7,118.4,9.3,115.8,9.3z M125.4,9.5v17.2h2.3V9.5H125.4z M18.6,26.7h2.3V9.5h-2.3V26.7z M29.1,9.5l-2.7,17.2h2l0.5-3.1
			h3.8l0.5,3.1h2.3L32.7,9.5L29.1,9.5z M29.2,21.5l1.6-10.7l1.6,10.7H29.2z M73.9,23L71.7,9.5h-3.5v17.2h1.9v-15l2.5,15H75l2.5-15
			v15h1.9V9.5H76L73.9,23z M9.4,25.3L7.8,9.5H5.4L3.9,25.3L2.2,9.5H0.3l1.9,17.2h3.3l1.2-11.6l1.2,11.6h3.3l1.9-17.2h-1.9L9.4,25.3z
			"/>
	</g>
</g>
</svg>
